<svg width="97" height="96" viewBox="0 0 97 96" fill="none"
  xmlns="http://www.w3.org/2000/svg">
  <path d="M79.7973 45.8134C79.7973 37.7625 73.3566 31.3218 65.3056 31.3218C57.2547 31.3218 50.8139 37.7625 50.8139 45.8134M45.9834 84.4579C45.9834 76.407 39.5426 69.9663 31.4917 69.9663C23.4407 69.9663 17 76.407 17 84.4579M66.2717 54.5085V81.8816M66.2717 81.8816L56.6106 72.2205M66.2717 81.8816L75.9329 72.2205M29.2374 41.627V14.2538M29.2374 14.2538L19.5763 23.9149M29.2374 14.2538L38.8985 23.9149M65.3056 28.7455C69.9299 28.7455 73.6786 24.9968 73.6786 20.3725C73.6786 15.7482 69.9299 11.9995 65.3056 11.9995C60.6814 11.9995 56.9326 15.7482 56.9326 20.3725C56.9326 24.9968 60.6814 28.7455 65.3056 28.7455ZM31.4917 67.39C36.116 67.39 39.8647 63.6412 39.8647 59.017C39.8647 54.3927 36.116 50.644 31.4917 50.644C26.8674 50.644 23.1187 54.3927 23.1187 59.017C23.1187 63.6412 26.8674 67.39 31.4917 67.39Z" stroke="#057999" stroke-width="4" stroke-linecap="round" stroke-linejoin="round"/>
</svg>
