<svg width="98" height="98" viewBox="0 0 98 98" fill="none" xmlns="http://www.w3.org/2000/svg">
<path d="M67.4628 80.1462H71.6939C75.0321 80.1462 77.7383 77.478 77.7383 74.1867V43.1522H20.2707V74.1867C20.2707 77.478 22.9769 80.1462 26.3152 80.1462H30.5463M49.0786 31.9691C49.0786 31.9691 67.6683 30.6818 71.6092 28.3189C75.1448 26.3088 76.5113 21.9515 74.7433 18.3247M49.0786 31.9691C50.1414 23.7588 56.1866 17.0234 64.3227 14.9843M49.0786 31.9691C49.0786 31.9691 49.4594 31.9453 50.0638 31.8976C52.7398 27.3685 57.2075 24.1425 62.3945 22.994C66.2349 21.7002 70.4806 23.0611 72.8151 26.3343C72.941 26.5835 73.0481 26.8414 73.1355 27.1061C75.5704 24.8454 76.2228 21.2821 74.7433 18.3247M74.7433 18.3247C72.4082 15.0523 68.1631 13.6915 64.3227 14.9843M74.7433 18.3247C72.4094 15.0506 68.1631 13.6894 64.3227 14.9843M49 31.9691C49 31.9691 30.4103 30.6818 26.4693 28.3189C22.9337 26.3088 21.5673 21.9515 23.3353 18.3247M49 31.9691C47.9371 23.7588 41.892 17.0234 33.7559 14.9843M49 31.9691C49 31.9691 48.6192 31.9453 48.0148 31.8976C45.3388 27.3685 40.8711 24.1425 35.6841 22.994C31.8436 21.7002 27.598 23.0611 25.2635 26.3343C25.1376 26.5835 25.0305 26.8414 24.9431 27.1061C22.5082 24.8454 21.8558 21.2821 23.3353 18.3247M23.3353 18.3247C25.6704 15.0523 29.9154 13.6915 33.7559 14.9843M23.3353 18.3247C25.6691 15.0506 29.9154 13.6894 33.7559 14.9843M68.2334 62.0351H29.7636M61.5634 71.627H36.4366M79.9778 31.9691H18.0222C18.0222 31.9691 15 31.9691 15 34.9489V40.1724C15 40.1724 15 43.1522 18.0222 43.1522H79.9778C79.9778 43.1522 83 43.1522 83 40.1724V34.9489C83 34.9489 83 31.9691 79.9778 31.9691ZM45.5124 81.0223C46.4202 81.9654 47.6812 82.4995 49 82.4995C50.3188 82.4995 51.5798 81.9654 52.4876 81.0223L65.4832 67.5775C68.4452 64.6201 69.1739 60.1337 67.2965 56.4123C65.9099 53.6357 63.2474 51.6912 60.1494 51.1926C57.0514 50.694 53.9 51.7026 51.6898 53.9003L49 56.5821L46.3102 53.9003C44.1 51.7026 40.9486 50.694 37.8506 51.1926C34.7526 51.6912 32.0901 53.6357 30.7035 56.4123C28.8261 60.1337 29.5548 64.6201 32.5168 67.5775L45.5124 81.0223Z" stroke="#057999" stroke-width="4" stroke-linecap="round" stroke-linejoin="round"/>
</svg>
