<svg width="55" height="30" viewBox="0 0 55 30" fill="none" xmlns="http://www.w3.org/2000/svg">
<rect y="0.5" width="55" height="29" rx="13" fill="white"/>
<rect y="0.5" width="55" height="29" rx="13" fill="url(#paint0_linear_236_1435)"/>
<path d="M20.4783 22.8776C29.6332 25.9298 26.8262 26.0168 36.7593 20.995C36.8933 20.9259 36.9831 20.7936 36.9979 20.6435C37.0126 20.4935 36.9503 20.3462 36.8323 20.2524C36.2551 19.7509 35.4558 19.5919 34.7306 19.8341L30.2071 21.3376M24.8262 21.5733H29.6088C30.0891 21.5733 30.4784 21.1839 30.4784 20.7037C30.4784 20.2234 30.0891 19.8341 29.6088 19.8341H27.0001C25.9695 18.7705 24.5671 18.1472 23.087 18.095H20.4783M25.6957 11.1384V15.921C25.6957 16.1612 25.8904 16.3558 26.1305 16.3558H33.9567C34.1968 16.3558 34.3915 16.1612 34.3915 15.921V11.1384M30.0436 16.3558V8.52966M17.4348 17.2254H20.0435C20.0435 17.2254 20.4783 17.2254 20.4783 17.6602V23.7472C20.4783 23.7472 20.4783 24.182 20.0435 24.182H17.4348C17.4348 24.182 17 24.182 17 23.7472V17.6602C17 17.6602 17 17.2254 17.4348 17.2254ZM25.2609 8.52966H34.8262C34.8262 8.52966 35.261 8.52966 35.261 8.96444V10.7036C35.261 10.7036 35.261 11.1384 34.8262 11.1384H25.2609C25.2609 11.1384 24.8262 11.1384 24.8262 10.7036V8.96444C24.8262 8.96444 24.8262 8.52966 25.2609 8.52966ZM32.5167 7.30008C31.7879 7.8711 30.9516 8.2893 30.0575 8.52966C30.2973 7.63539 30.7155 6.79889 31.2871 6.07051C32.0514 5.30615 32.4845 5.42441 32.8262 5.76268C33.168 6.10094 33.281 6.53573 32.5167 7.30008ZM27.5705 7.30008C28.2992 7.8711 29.1356 8.2893 30.0297 8.52966C29.7899 7.63539 29.3716 6.79889 28.8001 6.07051C28.0357 5.30615 27.6027 5.42441 27.261 5.76268C26.9192 6.10094 26.8062 6.53573 27.5705 7.30008Z" stroke="#040405" stroke-width="1.15943" stroke-linecap="round" stroke-linejoin="round"/>
<defs>
<linearGradient id="paint0_linear_236_1435" x1="-24.1463" y1="46.5" x2="10.8759" y2="-35.7799" gradientUnits="userSpaceOnUse">
<stop offset="0.0948897" stop-color="#6B58AA"/>
<stop offset="0.407456" stop-color="#5D98C0"/>
<stop offset="0.680226" stop-color="#41D48D"/>
</linearGradient>
</defs>
</svg>
