<svg width="99" height="98" viewBox="0 0 99 98" fill="none"
  xmlns="http://www.w3.org/2000/svg">
  <path d="M73.2 35.0993L82.5 32.9993L61.5 80.9993L34.5 62.9993M34.5 62.9993L16.5 47.9993L31.2 44.6993M34.5 62.9993V82.4993L47.7 71.9993M34.5 62.9993L46.2 56.0993M61.5 47.0993L70.5 41.9993M48.0003 46.5425L32.7003 30.6426C30.0003 27.6426 29.4003 23.4426 31.2003 20.1426C33.9003 14.4426 41.4003 13.2426 45.6003 17.7426L48.0003 20.1426L50.4003 17.7426C54.9003 13.2426 62.1003 14.4426 64.8003 20.1426C66.6003 23.7426 66.0003 27.9426 63.0003 30.6426L48.0003 46.5425Z" stroke="#057999" stroke-width="4" stroke-linecap="round" stroke-linejoin="round"/>
</svg>
