<svg width="97" height="96" viewBox="0 0 97 96" fill="none"
  xmlns="http://www.w3.org/2000/svg">
  <path d="M8.30579 35.319H15.2961C17.2264 35.319 18.7912 36.8838 18.7912 38.8141V80.7559C18.7912 82.6862 17.2264 84.251 15.2961 84.251H8.30579M18.7912 73.7656C44.4421 86.7885 43.1908 85.0724 65.1543 85.0724C74.3536 85.0724 78.9881 79.0782 81.6934 70.2949V70.239L88.3586 47.8701V47.8281C88.9973 45.7165 88.6017 43.4273 87.2914 41.6525C85.9811 39.8777 83.9099 38.8256 81.7038 38.8141H64.5776C62.4092 38.8143 60.3635 37.8081 59.04 36.0904C57.7165 34.3727 57.2651 32.1381 57.818 30.0413L60.9007 18.3536C61.6383 15.5485 60.2593 12.6182 57.6277 11.3988C54.9961 10.1793 51.8689 11.0214 50.2056 13.3974L33.1213 37.6013C31.8117 39.4575 29.6819 40.5615 27.4103 40.5617H18.7912" stroke="#057999" stroke-width="4" stroke-linecap="round" stroke-linejoin="round"/>
</svg>
