<svg width="99" height="98" viewBox="0 0 99 98" fill="none" xmlns="http://www.w3.org/2000/svg">
<path d="M50.9677 83.0413L44.1359 75.6476C42.5026 73.7611 42.7078 70.9076 44.5943 69.2743C46.4809 67.6409 49.3343 67.8461 50.9677 69.7327L56.8827 76.5053V50.5091C56.8827 48.059 58.8688 46.0728 61.3189 46.0728C63.769 46.0728 65.7551 48.059 65.7551 50.5091V66.7752H74.6276C79.5277 66.7752 83.5 70.7475 83.5 75.6476V83.0413M50.9677 54.9453C42.5084 61.2727 30.7604 60.7563 22.8889 53.711C15.0174 46.6657 13.2068 35.0467 18.5613 25.9403C23.9159 16.8339 34.9496 12.7674 44.9332 16.2208C54.9167 19.6743 61.0794 29.6894 59.6627 40.1579M37.659 28.328V23.8917M45.0527 28.328H34.2284C32.31 28.3029 30.6491 29.6557 30.2855 31.5394C29.9218 33.4232 30.9598 35.297 32.7496 35.9878L42.5685 38.413C44.3583 39.1038 45.3963 40.9776 45.0326 42.8613C44.669 44.7451 43.0081 46.0979 41.0897 46.0728H30.2653M37.659 50.5091V46.0728" stroke="#057999" stroke-width="4" stroke-linecap="round" stroke-linejoin="round"/>
</svg>
