<svg width="98" height="98" viewBox="0 0 98 98" fill="none" xmlns="http://www.w3.org/2000/svg">
<path d="M15 68.3086V74.13C15 75.7628 16.3237 77.0865 17.9565 77.0865H23.7779M23.7779 20.9126H17.9565C16.3237 20.9126 15 22.2363 15 23.8691V29.6905M83 29.6905V23.8691C83 22.2363 81.6763 20.9126 80.0435 20.9126H74.2221M74.2221 77.0865H80.0435C81.6763 77.0865 83 75.7628 83 74.13V68.3086M59.339 59.3474V68.2169H68.2085V59.3474H65.252M44.5563 37.1735V29.7822H53.4259M53.4259 35.6952V46.043M29.7737 53.4343H44.5563V46.043M44.5563 59.3474V68.2169H53.4259M50.4694 59.3474H53.4259M29.7737 44.5648H38.6433M68.2085 44.5648H59.339V47.5213M50.4694 53.4343H68.2085M29.7737 29.7822H38.6433V38.6517H29.7737V29.7822ZM59.339 29.7822H68.2085V38.6517H59.339V29.7822ZM29.7737 59.3474H38.6433V68.2169H29.7737V59.3474Z" stroke="#057999" stroke-width="4" stroke-linecap="round" stroke-linejoin="round"/>
</svg>
