<svg width="98" height="96" viewBox="0 0 98 96" fill="none" xmlns="http://www.w3.org/2000/svg">
<path d="M49 53.3494H18.4C16.5222 53.3494 15 51.8272 15 49.9494V12.5494C15 10.6716 16.5222 9.14941 18.4 9.14941H79.6C81.4778 9.14941 83 10.6716 83 12.5494V49.9494C83 51.8272 81.4778 53.3494 79.6 53.3494M79.6 53.3494H64.3M79.6 53.3494H62.6V41.5922C62.6 39.8922 62.6 32.9494 55.8 32.9494C49 32.9494 49 39.8922 49 41.5922V56.7494L47.3 63.5494C46.3943 66.8891 46.3943 70.4097 47.3 73.7494C48.6872 76.2346 50.4026 78.5218 52.4 80.5494V87.3494M79.6 53.3494L76.2 72.0494V87.3494M49 19.3494H69.4M49 26.1494H69.4M47.7216 61.8494C46.5873 64.6082 44.6672 66.9729 42.2 68.6494C40.0512 69.7272 35.4 69.0506 35.4 65.2494V53.3494M25.2 27.8494C25.2 32.5438 29.0056 36.3494 33.7 36.3494C38.3944 36.3494 42.2 32.5438 42.2 27.8494C42.2 23.155 38.3944 19.3494 33.7 19.3494C29.0056 19.3494 25.2 23.155 25.2 27.8494Z" stroke="#057999" stroke-width="4" stroke-linecap="round" stroke-linejoin="round"/>
</svg>
