<svg width="98" height="98" viewBox="0 0 98 98" fill="none"
  xmlns="http://www.w3.org/2000/svg">
  <path d="M56.74 57.4993L54.34 56.6293C52.66 55.9993 52.93 51.5593 53.68 50.6293C56.1008 48.0127 57.2903 44.4876 56.95 40.9393C57.1583 38.6816 56.4215 36.4385 54.9148 34.7443C53.4081 33.05 51.2666 32.0561 49 31.9993C46.7219 32.0548 44.57 33.0569 43.0614 34.7648C41.5528 36.4726 40.824 38.7318 41.05 40.9993C40.7097 44.5476 41.8992 48.0727 44.32 50.6893C45.07 51.4993 45.34 55.9393 43.66 56.6893C37.39 58.8493 32.38 60.4993 31.21 62.8993C30.1082 65.4591 29.5269 68.2126 29.5 70.9993M29.5 70.9993H65.5M29.5 70.9993H68.5V76.9993C68.5 80.313 65.8137 82.9993 62.5 82.9993H35.5C32.1863 82.9993 29.5 80.313 29.5 76.9993V25.9993C29.5 22.6856 32.1863 19.9993 35.5 19.9993H62.5C65.8137 19.9993 68.5 22.6856 68.5 25.9993V57.7693M14.5 19.9993H17.5M20.5 16.9993V13.9993M26.5 19.9993H23.5M20.5 22.9993V25.9993M72.13 61.3693L67.63 56.8693C66.2714 55.4527 64.0216 55.4056 62.605 56.7643C61.1884 58.1229 61.1414 60.3727 62.5 61.7893C69.13 68.6893 67.45 72.0493 73 77.6293L79 82.9993M68.5 43.9993L78.37 55.3693C79.7348 56.7274 80.5014 58.5739 80.5 60.4993L80.5 64.9993C80.5618 67.3449 81.6606 69.5424 83.5 70.9993M49 76.2493C49.4142 76.2493 49.75 76.5851 49.75 76.9993C49.75 77.4135 49.4142 77.7493 49 77.7493C48.5858 77.7493 48.25 77.4135 48.25 76.9993C48.25 76.5851 48.5858 76.2493 49 76.2493Z" stroke="#057999" stroke-width="4" stroke-linecap="round" stroke-linejoin="round"/>
</svg>
