<svg width="24" height="25" viewBox="0 0 24 25" fill="none" xmlns="http://www.w3.org/2000/svg">
<path d="M21 7.35938C19.8069 7.35813 18.663 6.88363 17.8194 6.03998C16.9757 5.19634 16.5012 4.05247 16.5 2.85938C16.5 2.66046 16.421 2.4697 16.2803 2.32904C16.1397 2.18839 15.9489 2.10938 15.75 2.10938H12C11.8011 2.10938 11.6103 2.18839 11.4697 2.32904C11.329 2.4697 11.25 2.66046 11.25 2.85938V15.2344C11.2498 15.5699 11.1597 15.8992 10.9889 16.188C10.8181 16.4768 10.5729 16.7145 10.279 16.8762C9.98501 17.038 9.65304 17.1179 9.31768 17.1076C8.98232 17.0974 8.65586 16.9973 8.37234 16.8179C8.08883 16.6385 7.85865 16.3863 7.70582 16.0876C7.55299 15.7889 7.4831 15.4547 7.50345 15.1198C7.5238 14.7849 7.63364 14.4616 7.82151 14.1836C8.00939 13.9056 8.26841 13.6831 8.57156 13.5394C8.6998 13.4785 8.80813 13.3825 8.88397 13.2625C8.95981 13.1425 9.00005 13.0035 9 12.8616V8.85938C9.00005 8.74974 8.97606 8.64143 8.92972 8.54207C8.88339 8.44272 8.81584 8.35472 8.73182 8.28429C8.6478 8.21386 8.54937 8.16271 8.44345 8.13443C8.33752 8.10615 8.22669 8.10144 8.11875 8.12063C4.77281 8.71688 2.25 11.775 2.25 15.2344C2.25 17.124 3.00067 18.9363 4.33686 20.2725C5.67306 21.6087 7.48533 22.3594 9.375 22.3594C11.2647 22.3594 13.0769 21.6087 14.4131 20.2725C15.7493 18.9363 16.5 17.124 16.5 15.2344V11.5116C17.889 12.2363 19.4333 12.613 21 12.6094C21.1989 12.6094 21.3897 12.5304 21.5303 12.3897C21.671 12.2491 21.75 12.0583 21.75 11.8594V8.10938C21.75 7.91046 21.671 7.7197 21.5303 7.57905C21.3897 7.43839 21.1989 7.35938 21 7.35938ZM20.25 11.0756C18.7843 10.9457 17.3809 10.4227 16.1878 9.56156C16.0757 9.48094 15.9434 9.43284 15.8057 9.42258C15.668 9.41232 15.5301 9.4403 15.4072 9.50342C15.2844 9.56654 15.1814 9.66236 15.1095 9.78031C15.0376 9.89826 14.9997 10.0338 15 10.1719V15.2344C15 16.7262 14.4074 18.157 13.3525 19.2119C12.2976 20.2667 10.8668 20.8594 9.375 20.8594C7.88316 20.8594 6.45242 20.2667 5.39752 19.2119C4.34263 18.157 3.75 16.7262 3.75 15.2344C3.75 12.8062 5.31 10.6284 7.5 9.83438V12.4284C7.01517 12.7524 6.62254 13.1964 6.36037 13.7172C6.09821 14.2381 5.97545 14.8179 6.00407 15.4003C6.03268 15.9827 6.2117 16.5477 6.52366 17.0404C6.83562 17.533 7.26989 17.9364 7.78414 18.2112C8.29839 18.4861 8.87508 18.623 9.458 18.6087C10.0409 18.5943 10.6102 18.4292 11.1103 18.1294C11.6104 17.8296 12.0243 17.4053 12.3117 16.898C12.599 16.3906 12.7501 15.8175 12.75 15.2344V3.60938H15.0469C15.2155 4.93039 15.818 6.15804 16.7597 7.09972C17.7013 8.0414 18.929 8.64383 20.25 8.8125V11.0756Z" fill="#047999"/>
</svg>
