<svg width="96" height="96" viewBox="0 0 96 96" fill="none"
  xmlns="http://www.w3.org/2000/svg">
  <path d="M62.1185 44.9245L67.4582 50.2641C68.9833 51.7889 70.132 53.6483 70.813 55.6946L72.227 59.942L77.7483 65.4659M50.1107 58.9794L49.5321 59.558C48.5257 60.5663 47.9637 61.9348 47.971 63.3594C47.9783 64.784 48.5543 66.1466 49.571 67.1446L50.5855 68.1487C52.5725 70.116 55.2646 71.2056 58.0605 71.174L61.0443 71.1376L66.5552 76.646M64.9518 28.3398L68.9552 24.3363M56.9449 24.3363V18.9993M68.9552 36.3467H74.2923M28.9206 64.3709L24.9172 68.3744M36.9276 68.3744V73.7115M24.9172 56.364H19.5801M62.0432 44.8492C60.8437 43.6503 58.8995 43.6503 57.6999 44.8492C57.2589 45.3116 56.9763 45.9022 56.893 46.5357C56.1242 46.4331 55.3465 46.6435 54.7343 47.1196C54.122 47.5957 53.7266 48.2977 53.6368 49.068C52.7326 48.9656 51.8304 49.2753 51.1797 49.9113C50.751 50.362 50.4735 50.9352 50.3857 51.5511C49.4603 51.4224 48.5274 51.7289 47.8586 52.3813C46.6596 53.5809 46.6596 55.5251 47.8586 56.7247L56.0705 64.9469M33.6298 50.7208L28.2902 45.3811C26.765 43.8563 25.6163 41.9969 24.9354 39.9506L23.5213 35.7033L18 30.1794M45.6376 36.6659L46.2162 36.0873C47.2226 35.079 47.7846 33.7105 47.7773 32.2859C47.77 30.8613 47.194 29.4986 46.1773 28.5007L45.1628 27.4966C43.1759 25.5292 40.4837 24.4397 37.6878 24.4713L34.704 24.5076L29.1931 18.9993M33.7051 50.796C34.9046 51.995 36.8489 51.995 38.0484 50.796C38.4895 50.3337 38.7721 49.7431 38.8554 49.1095C39.6241 49.2121 40.4019 49.0018 41.0141 48.5257C41.6263 48.0496 42.0217 47.3476 42.1116 46.5772C43.0157 46.6796 43.9179 46.37 44.5686 45.734C44.9973 45.2832 45.2749 44.71 45.3626 44.0942C46.288 44.2229 47.2209 43.9164 47.8897 43.2639C49.0887 42.0644 49.0887 40.1201 47.8897 38.9206L39.6778 30.6983" stroke="#057999" stroke-width="4" stroke-linecap="round" stroke-linejoin="round"/>
</svg>
